<svg width="50" height="50" viewBox="0 0 50 50" fill="none" xmlns="http://www.w3.org/2000/svg">
<path opacity="0.5" d="M19 3.4641C22.7128 1.32051 27.2872 1.32051 31 3.4641L40.6506 9.0359C44.3634 11.1795 46.6506 15.141 46.6506 19.4282V30.5718C46.6506 34.859 44.3634 38.8205 40.6506 40.9641L31 46.5359C27.2872 48.6795 22.7128 48.6795 19 46.5359L9.34937 40.9641C5.63655 38.8205 3.34937 34.859 3.34937 30.5718V19.4282C3.34937 15.141 5.63655 11.1795 9.34937 9.0359L19 3.4641Z" fill="#FFE1F7"/>
<path d="M17.75 17.5H25.25V19.75H17.75V17.5Z" fill="#C384CA"/>
<path d="M18.5 17.5604C18.5 17.8427 18.6122 18.1135 18.8118 18.3132C19.0115 18.5128 19.2823 18.625 19.5646 18.625H25.25V17.5H18.5V17.5604Z" fill="#ECB4F6"/>
<path d="M24.5 19H18.5C16.8431 19 15.5 20.3431 15.5 22V33.25C15.5 34.9069 16.8431 36.25 18.5 36.25H24.5C26.1569 36.25 27.5 34.9069 27.5 33.25V22C27.5 20.3431 26.1569 19 24.5 19Z" fill="#C384CA"/>
<path d="M24.5 19H18.5C17.973 19 17.4555 19.1396 17 19.4046V27.3036C17 29.2785 17.7845 31.1725 19.181 32.569C20.5775 33.9655 22.4715 34.75 24.4464 34.75H27.0954C27.3604 34.2945 27.5 33.777 27.5 33.25V22C27.5 21.2044 27.1839 20.4413 26.6213 19.8787C26.0587 19.3161 25.2956 19 24.5 19Z" fill="#ECB4F6"/>
<path d="M15.5 22H27.5V31.75H15.5V22Z" fill="#967CC5"/>
<path d="M17 27.3036C16.9997 28.9073 17.5203 30.4677 18.4835 31.75H27.5V22H17V27.3036Z" fill="#B696EF"/>
<path d="M17 15.25H26V17.5H17V15.25Z" fill="#D8ECFE"/>
<path d="M21.125 15.25H21.875V17.5H21.125V15.25Z" fill="#F2FBFF"/>
<path d="M19.625 15.25H20.375V17.5H19.625V15.25Z" fill="#F2FBFF"/>
<path d="M18.125 15.25H18.875V17.5H18.125V15.25Z" fill="#F2FBFF"/>
<path d="M24.125 15.25H24.875V17.5H24.125V15.25Z" fill="#F2FBFF"/>
<path d="M22.625 15.25H23.375V17.5H22.625V15.25Z" fill="#F2FBFF"/>
<path d="M22.9994 28.75L20.7003 25.8149C20.4989 25.5605 20.385 25.2479 20.3756 24.9235C20.3662 24.5992 20.4618 24.2805 20.6481 24.0149C20.7614 23.8549 20.9115 23.7246 21.0858 23.635C21.2601 23.5453 21.4534 23.499 21.6494 23.5C21.8343 23.499 22.0171 23.54 22.1839 23.6198C22.3507 23.6996 22.4972 23.8162 22.6124 23.9609L22.9994 24.4544L23.386 23.9609C23.5013 23.8162 23.6478 23.6995 23.8147 23.6197C23.9816 23.5399 24.1644 23.4989 24.3494 23.5C24.5453 23.4988 24.7386 23.5448 24.913 23.6342C25.0873 23.7236 25.2376 23.8536 25.351 24.0134C25.5373 24.279 25.6329 24.5977 25.6235 24.922C25.6141 25.2464 25.5003 25.559 25.2989 25.8134L22.9994 28.75Z" fill="#D8ECFE"/>
<path d="M32.375 22C34.6532 22 36.5 20.1532 36.5 17.875C36.5 15.5968 34.6532 13.75 32.375 13.75C30.0968 13.75 28.25 15.5968 28.25 17.875C28.25 20.1532 30.0968 22 32.375 22Z" fill="#FBD161"/>
<path d="M32.3746 22.0001C31.9921 21.9992 31.6116 21.9451 31.244 21.8392L30.9121 34.7501C30.9121 35.138 31.0662 35.51 31.3405 35.7843C31.6147 36.0585 31.9867 36.2126 32.3746 36.2126C32.7625 36.2126 33.1345 36.0585 33.4088 35.7843C33.683 35.51 33.8371 35.138 33.8371 34.7501L33.5064 21.8389C33.1384 21.9449 32.7575 21.9992 32.3746 22.0001Z" fill="#FBD161"/>
<path d="M32.3746 22.0001C32.1332 21.9989 31.8922 21.9766 31.6546 21.9334L31.3246 34.7501C31.316 35.1076 31.4392 35.4558 31.6706 35.7285C31.902 36.0011 32.2256 36.1792 32.5798 36.2287C32.9343 36.1797 33.2585 36.0018 33.4904 35.7291C33.7222 35.4565 33.8457 35.108 33.8371 34.7501L33.5064 21.8389C33.1385 21.9449 32.7576 21.9992 32.3746 22.0001Z" fill="#FF9D33"/>
<path d="M32.75 21.9813C34.8211 21.9813 36.5 20.1429 36.5 17.875C36.5 15.6072 34.8211 13.7688 32.75 13.7688C30.6789 13.7688 29 15.6072 29 17.875C29 20.1429 30.6789 21.9813 32.75 21.9813Z" fill="#FF9D33"/>
<path d="M32.375 20.5C33.8247 20.5 35 19.3247 35 17.875C35 16.4253 33.8247 15.25 32.375 15.25C30.9253 15.25 29.75 16.4253 29.75 17.875C29.75 19.3247 30.9253 20.5 32.375 20.5Z" fill="#D8ECFE"/>
<path d="M32.3737 15.25C31.769 15.2492 31.1828 15.4582 30.7151 15.8414C30.3063 16.3455 30.0987 16.9831 30.1325 17.6312C30.1662 18.2794 30.4388 18.892 30.8978 19.351C31.3567 19.8099 31.9693 20.0825 32.6175 20.1162C33.2656 20.15 33.9032 19.9424 34.4073 19.5336C34.721 19.1488 34.9191 18.683 34.9787 18.1902C35.0383 17.6973 34.957 17.1977 34.7441 16.7492C34.5312 16.3008 34.1955 15.9219 33.7759 15.6565C33.3563 15.3911 32.8701 15.2502 32.3737 15.25Z" fill="#F2FBFF"/>
<path d="M19.9994 30.25L17.7003 27.3149C17.4989 27.0605 17.385 26.7479 17.3756 26.4235C17.3662 26.0992 17.4618 25.7805 17.6481 25.5149C17.7614 25.3549 17.9115 25.2246 18.0858 25.135C18.2601 25.0453 18.4534 24.999 18.6494 25C18.8343 24.999 19.0171 25.04 19.1839 25.1198C19.3507 25.1996 19.4972 25.3162 19.6124 25.4609L19.9994 25.9544L20.386 25.4609C20.5013 25.3162 20.6478 25.1995 20.8147 25.1197C20.9816 25.0399 21.1644 24.9989 21.3494 25C21.5453 24.9988 21.7386 25.0448 21.913 25.1342C22.0873 25.2236 22.2376 25.3536 22.351 25.5134C22.5373 25.779 22.6329 26.0977 22.6235 26.422C22.6141 26.7464 22.5003 27.059 22.2989 27.3134L19.9994 30.25Z" fill="#F2FBFF"/>
</svg>
