<svg width="24" height="24" viewBox="0 0 24 24" fill="none" xmlns="http://www.w3.org/2000/svg">
<path d="M3.75 4.5H11.25V6.75H3.75V4.5Z" fill="#C384CA"/>
<path d="M4.5 4.56038C4.5 4.84273 4.61217 5.11352 4.81182 5.31318C5.01148 5.51283 5.28227 5.625 5.56462 5.625H11.25V4.5H4.5V4.56038Z" fill="#ECB4F6"/>
<path d="M10.5 6H4.5C2.84315 6 1.5 7.34315 1.5 9V20.25C1.5 21.9069 2.84315 23.25 4.5 23.25H10.5C12.1569 23.25 13.5 21.9069 13.5 20.25V9C13.5 7.34315 12.1569 6 10.5 6Z" fill="#C384CA"/>
<path d="M10.5 6H4.5C3.97304 6.00002 3.45549 6.13963 3 6.40463V14.3036C3 16.2785 3.78453 18.1725 5.18099 19.569C6.57746 20.9655 8.47147 21.75 10.4464 21.75H13.0954C13.3604 21.2945 13.5 20.777 13.5 20.25V9C13.5 8.20435 13.1839 7.44129 12.6213 6.87868C12.0587 6.31607 11.2956 6 10.5 6Z" fill="#ECB4F6"/>
<path d="M1.5 9H13.5V18.75H1.5V9Z" fill="#967CC5"/>
<path d="M3 14.3036C2.9997 15.9073 3.52032 17.4677 4.4835 18.75H13.5V9H3V14.3036Z" fill="#B696EF"/>
<path d="M3 2.25H12V4.5H3V2.25Z" fill="#D8ECFE"/>
<path d="M7.125 2.25H7.875V4.5H7.125V2.25Z" fill="#F2FBFF"/>
<path d="M5.625 2.25H6.375V4.5H5.625V2.25Z" fill="#F2FBFF"/>
<path d="M4.125 2.25H4.875V4.5H4.125V2.25Z" fill="#F2FBFF"/>
<path d="M10.125 2.25H10.875V4.5H10.125V2.25Z" fill="#F2FBFF"/>
<path d="M8.625 2.25H9.375V4.5H8.625V2.25Z" fill="#F2FBFF"/>
<path d="M8.99939 15.75L6.70027 12.8149C6.49888 12.5605 6.38502 12.2479 6.37563 11.9235C6.36624 11.5992 6.46182 11.2805 6.64814 11.0149C6.76136 10.8549 6.91147 10.7246 7.08577 10.635C7.26007 10.5453 7.4534 10.499 7.64939 10.5C7.83431 10.499 8.01705 10.54 8.18386 10.6198C8.35066 10.6996 8.49719 10.8162 8.61239 10.9609L8.99939 11.4544L9.38602 10.9609C9.50126 10.8162 9.64784 10.6995 9.81472 10.6197C9.98159 10.5399 10.1644 10.4989 10.3494 10.5C10.5453 10.4988 10.7386 10.5448 10.913 10.6342C11.0873 10.7236 11.2376 10.8536 11.351 11.0134C11.5373 11.279 11.6329 11.5977 11.6235 11.922C11.6141 12.2464 11.5003 12.559 11.2989 12.8134L8.99939 15.75Z" fill="#D8ECFE"/>
<path d="M18.375 9C20.6532 9 22.5 7.15317 22.5 4.875C22.5 2.59683 20.6532 0.75 18.375 0.75C16.0968 0.75 14.25 2.59683 14.25 4.875C14.25 7.15317 16.0968 9 18.375 9Z" fill="#FBD161"/>
<path d="M18.3746 9.00012C17.9921 8.99923 17.6116 8.94509 17.244 8.83924L16.9121 21.7501C16.9121 22.138 17.0662 22.51 17.3405 22.7843C17.6147 23.0585 17.9867 23.2126 18.3746 23.2126C18.7625 23.2126 19.1345 23.0585 19.4088 22.7843C19.683 22.51 19.8371 22.138 19.8371 21.7501L19.5064 8.83887C19.1384 8.94494 18.7575 8.99921 18.3746 9.00012Z" fill="#FBD161"/>
<path d="M18.3746 9.00012C18.1332 8.9989 17.8922 8.97656 17.6546 8.93337L17.3246 21.7501C17.316 22.1076 17.4392 22.4558 17.6706 22.7285C17.902 23.0011 18.2256 23.1792 18.5798 23.2287C18.9343 23.1797 19.2585 23.0018 19.4904 22.7291C19.7222 22.4565 19.8457 22.108 19.8371 21.7501L19.5064 8.83887C19.1385 8.94494 18.7576 8.99921 18.3746 9.00012Z" fill="#FF9D33"/>
<path d="M18.75 8.9813C20.8211 8.9813 22.5 7.14287 22.5 4.87505C22.5 2.60723 20.8211 0.768799 18.75 0.768799C16.6789 0.768799 15 2.60723 15 4.87505C15 7.14287 16.6789 8.9813 18.75 8.9813Z" fill="#FF9D33"/>
<path d="M18.375 7.5C19.8247 7.5 21 6.32475 21 4.875C21 3.42525 19.8247 2.25 18.375 2.25C16.9253 2.25 15.75 3.42525 15.75 4.875C15.75 6.32475 16.9253 7.5 18.375 7.5Z" fill="#D8ECFE"/>
<path d="M18.3737 2.25C17.769 2.24923 17.1828 2.45823 16.7151 2.84138C16.3063 3.34546 16.0987 3.98311 16.1325 4.63124C16.1662 5.27938 16.4388 5.89203 16.8978 6.35095C17.3567 6.80987 17.9693 7.08251 18.6175 7.11625C19.2656 7.14998 19.9032 6.94242 20.4073 6.53363C20.721 6.14885 20.9191 5.68301 20.9787 5.19017C21.0383 4.69733 20.957 4.19768 20.7441 3.74922C20.5312 3.30076 20.1955 2.92187 19.7759 2.6565C19.3563 2.39114 18.8701 2.25019 18.3737 2.25Z" fill="#F2FBFF"/>
<path d="M5.99939 17.25L3.70027 14.3149C3.49888 14.0605 3.38502 13.7479 3.37563 13.4235C3.36624 13.0992 3.46182 12.7805 3.64814 12.5149C3.76136 12.3549 3.91147 12.2246 4.08577 12.135C4.26007 12.0453 4.4534 11.999 4.64939 12C4.83431 11.999 5.01705 12.04 5.18386 12.1198C5.35066 12.1996 5.49719 12.3162 5.61239 12.4609L5.99939 12.9544L6.38602 12.4609C6.50126 12.3162 6.64784 12.1995 6.81472 12.1197C6.98159 12.0399 7.16441 11.9989 7.34939 12C7.54531 11.9988 7.73864 12.0448 7.91299 12.1342C8.08735 12.2236 8.2376 12.3536 8.35102 12.5134C8.53734 12.779 8.63292 13.0977 8.62353 13.422C8.61413 13.7464 8.50027 14.059 8.29889 14.3134L5.99939 17.25Z" fill="#F2FBFF"/>
</svg>
