<svg width="50" height="50" viewBox="0 0 50 50" fill="none" xmlns="http://www.w3.org/2000/svg">
<path opacity="0.5" d="M19 3.4641C22.7128 1.32051 27.2872 1.32051 31 3.4641L40.6506 9.0359C44.3634 11.1795 46.6506 15.141 46.6506 19.4282V30.5718C46.6506 34.859 44.3634 38.8205 40.6506 40.9641L31 46.5359C27.2872 48.6795 22.7128 48.6795 19 46.5359L9.34937 40.9641C5.63655 38.8205 3.34937 34.859 3.34937 30.5718V19.4282C3.34937 15.141 5.63655 11.1795 9.34937 9.0359L19 3.4641Z" fill="#FFE9C2"/>
<path d="M35.2229 26.0296L35.1419 25.9099H29.5859C27.378 29.1217 26.213 32.9334 26.2488 36.8282L26.2494 36.8888H26.27C26.27 37.9069 28.9984 38.7321 32.364 38.7321C35.7296 38.7321 38.458 37.9069 38.458 36.8888H38.4785V36.6528C38.4785 32.867 37.3448 29.1677 35.2229 26.0296Z" fill="#EB2529"/>
<path d="M27.4363 37.4719H27.4157L27.4152 37.4113C27.3793 33.5165 28.5443 29.7049 30.7523 26.4931V25.9099H29.5859C27.378 29.1217 26.213 32.9334 26.2488 36.8282L26.2494 36.8888H26.27C26.27 37.3606 26.8563 37.791 27.8203 38.117C27.5723 37.9162 27.4363 37.6989 27.4363 37.4719Z" fill="#EB2529"/>
<path d="M29.5859 23.8103H35.1419V25.9098H29.5859V23.8103Z" fill="#FF9D33"/>
<path d="M35.4199 22.9451C35.5654 22.492 35.7125 22.0393 35.8774 21.593C36.4047 20.1656 36.3325 18.5794 35.668 17.2006L35.6456 17.1509H33.7346V19.3653L32.3356 20.8671L30.9365 19.3653V17.1509H29.0521H29.0455C28.3715 18.5394 28.3023 20.1427 28.8395 21.5803C29.0055 22.0244 29.1534 22.4752 29.2996 22.9263L29.5861 23.8104H35.1421L35.4199 22.9451Z" fill="#FFAE4D"/>
<path d="M30.0059 21.5803C29.4686 20.1427 29.5378 18.5394 30.2118 17.1509H29.0521H29.0455C28.3715 18.5394 28.3023 20.1427 28.8395 21.5803C29.0056 22.0244 29.1534 22.4752 29.2996 22.9263L29.5861 23.8104H30.7525L30.4659 22.9263C30.3197 22.4752 30.1719 22.0245 30.0059 21.5803Z" fill="#FFBD7B"/>
<path d="M32.3619 32.146C32.2008 32.146 32.0703 32.2765 32.0703 32.4376V38.7299C32.1672 38.7313 32.2646 38.732 32.3625 38.732C32.4601 38.732 32.557 38.7313 32.6535 38.7299V32.4376C32.6535 32.2766 32.523 32.146 32.3619 32.146Z" fill="white"/>
<path d="M29.6782 32.1513C29.5203 32.1209 29.367 32.2239 29.3363 32.3819L28.1992 38.2342C28.3782 38.2849 28.5674 38.3324 28.7657 38.3764L29.9088 32.4932C29.9394 32.3351 29.8362 32.182 29.6782 32.1513Z" fill="white"/>
<path d="M35.0485 32.1514C34.8905 32.1821 34.7872 32.3352 34.8179 32.4933L35.961 38.3768C36.1593 38.3328 36.3484 38.2854 36.5275 38.2347L35.3904 32.382C35.3597 32.2239 35.2067 32.1207 35.0485 32.1514Z" fill="white"/>
<path d="M22.4431 38.3622H20.3063L19.3325 28.9416L18.3586 38.3622H16.2188V27.251H22.4431V38.3622Z" fill="white"/>
<path d="M16.2227 38.3622V27.251H22.447V38.3622" fill="#7120F6"/>
<path d="M16.2227 27.251H17.389V38.3622H16.2227V27.251Z" fill="#7120F6"/>
<path d="M20.3071 38.3623L19.3332 28.9417L18.3594 38.3623" fill="#FEE2B1"/>
<path d="M25.0967 25.5673L26.6713 24.622L22.5389 17.8331L21.7058 17.4292L19.3356 22.8656L16.9655 17.4292L16.1324 17.8331L12 24.622L13.5745 25.5673L16.1324 21.4214L16.5481 25.4251L15.6455 27.9817H18.7513L19.3356 27.0073L19.9199 27.9817H23.0258L22.1232 25.474L22.5389 21.4214L25.0967 25.5673Z" fill="#DD755E"/>
<path d="M19.3323 22.8657L21.727 17.4894L21.7081 17.432L20.5793 16.8848H18.0852L16.9523 17.434L16.9375 17.4894L19.3323 22.8657Z" fill="#FEE2B1"/>
<path d="M19.3328 24.5464C19.5748 24.5464 19.771 24.3501 19.771 24.1079C19.771 23.8657 19.5748 23.6694 19.3328 23.6694C19.0907 23.6694 18.8945 23.8657 18.8945 24.1079C18.8945 24.3501 19.0907 24.5464 19.3328 24.5464Z" fill="#EEEEEE"/>
<path d="M19.3328 26.3003C19.5748 26.3003 19.771 26.104 19.771 25.8618C19.771 25.6196 19.5748 25.4233 19.3328 25.4233C19.0907 25.4233 18.8945 25.6196 18.8945 25.8618C18.8945 26.104 19.0907 26.3003 19.3328 26.3003Z" fill="#EEEEEE"/>
<path d="M25.703 12.9902C24.4899 10.1889 19.8419 13.8556 25.6091 17.4717C31.8164 13.976 26.7114 10.1995 25.703 12.9902Z" fill="#FF4D84"/>
<path d="M24.5311 12.0088C22.9338 11.8236 21.1293 14.6629 25.6091 17.4717C25.9462 17.2819 26.25 17.0911 26.5229 16.9007C23.4593 14.8709 23.6119 12.856 24.5311 12.0088Z" fill="#FF649C"/>
</svg>
