<svg width="27" height="27" viewBox="0 0 27 27" fill="none" xmlns="http://www.w3.org/2000/svg">
<path d="M23.2229 14.0296L23.1419 13.9099H17.5859C15.378 17.1217 14.213 20.9334 14.2488 24.8282L14.2494 24.8888H14.27C14.27 25.9069 16.9984 26.7321 20.364 26.7321C23.7296 26.7321 26.458 25.9069 26.458 24.8888H26.4785V24.6528C26.4785 20.867 25.3448 17.1677 23.2229 14.0296Z" fill="#EB2529"/>
<path d="M15.4363 25.4719H15.4157L15.4152 25.4113C15.3793 21.5165 16.5443 17.7049 18.7523 14.4931V13.9099H17.5859C15.378 17.1217 14.213 20.9334 14.2488 24.8282L14.2494 24.8888H14.27C14.27 25.3606 14.8563 25.791 15.8203 26.117C15.5723 25.9162 15.4363 25.6989 15.4363 25.4719Z" fill="#EB2529"/>
<path d="M17.5859 11.8103H23.1419V13.9098H17.5859V11.8103Z" fill="#FF9D33"/>
<path d="M23.4199 10.9451C23.5654 10.492 23.7125 10.0393 23.8774 9.59296C24.4047 8.16565 24.3325 6.5794 23.668 5.20055L23.6456 5.15094H21.7346V7.36528L20.3356 8.86713L18.9365 7.36528V5.15088H17.0521H17.0455C16.3715 6.53942 16.3023 8.14269 16.8395 9.58026C17.0055 10.0244 17.1534 10.4752 17.2996 10.9263L17.5861 11.8104H23.1421L23.4199 10.9451Z" fill="#FFAE4D"/>
<path d="M18.0059 9.58026C17.4686 8.14269 17.5378 6.53942 18.2118 5.15088H17.0521H17.0455C16.3715 6.53942 16.3023 8.14269 16.8395 9.58026C17.0056 10.0244 17.1534 10.4752 17.2996 10.9263L17.5861 11.8104H18.7525L18.4659 10.9263C18.3197 10.4752 18.1719 10.0245 18.0059 9.58026Z" fill="#FFBD7B"/>
<path d="M20.3619 20.146C20.2008 20.146 20.0703 20.2765 20.0703 20.4376V26.7299C20.1672 26.7313 20.2646 26.732 20.3625 26.732C20.4601 26.732 20.557 26.7313 20.6535 26.7299V20.4376C20.6535 20.2766 20.523 20.146 20.3619 20.146Z" fill="white"/>
<path d="M17.6782 20.1513C17.5203 20.1209 17.367 20.2239 17.3363 20.3819L16.1992 26.2342C16.3782 26.2849 16.5674 26.3324 16.7657 26.3764L17.9088 20.4932C17.9394 20.3351 17.8362 20.182 17.6782 20.1513Z" fill="white"/>
<path d="M23.0485 20.1514C22.8905 20.1821 22.7872 20.3352 22.8179 20.4933L23.961 26.3768C24.1593 26.3328 24.3484 26.2854 24.5275 26.2347L23.3904 20.382C23.3597 20.2239 23.2067 20.1207 23.0485 20.1514Z" fill="white"/>
<path d="M10.4431 26.3622H8.30631L7.33246 16.9416L6.35862 26.3622H4.21875V15.251H10.4431V26.3622Z" fill="white"/>
<path d="M4.22266 26.3622V15.251H10.447V26.3622" fill="#7120F6"/>
<path d="M4.22266 15.251H5.38896V26.3622H4.22266V15.251Z" fill="#7120F6"/>
<path d="M8.30707 26.3623L7.33322 16.9417L6.35938 26.3623" fill="#FEE2B1"/>
<path d="M13.0967 13.5673L14.6713 12.622L10.5389 5.8331L9.70581 5.4292L7.33563 10.8656L4.96552 5.4292L4.13238 5.8331L0 12.622L1.57454 13.5673L4.13238 9.42145L4.54812 13.4251L3.64552 15.9817H6.75133L7.33563 15.0073L7.91994 15.9817H11.0258L10.1232 13.474L10.5389 9.42145L13.0967 13.5673Z" fill="#DD755E"/>
<path d="M7.33225 10.8657L9.727 5.48944L9.70813 5.43203L8.57927 4.88477H6.08517L4.95233 5.434L4.9375 5.48944L7.33225 10.8657Z" fill="#FEE2B1"/>
<path d="M7.33276 12.5464C7.57479 12.5464 7.77099 12.3501 7.77099 12.1079C7.77099 11.8657 7.57479 11.6694 7.33276 11.6694C7.09073 11.6694 6.89453 11.8657 6.89453 12.1079C6.89453 12.3501 7.09073 12.5464 7.33276 12.5464Z" fill="#EEEEEE"/>
<path d="M7.33276 14.3003C7.57479 14.3003 7.77099 14.104 7.77099 13.8618C7.77099 13.6196 7.57479 13.4233 7.33276 13.4233C7.09073 13.4233 6.89453 13.6196 6.89453 13.8618C6.89453 14.104 7.09073 14.3003 7.33276 14.3003Z" fill="#EEEEEE"/>
<path d="M13.703 0.990174C12.4899 -1.81113 7.84191 1.85562 13.6091 5.47171C19.8164 1.97602 14.7114 -1.80046 13.703 0.990174Z" fill="#FF4D84"/>
<path d="M12.5311 0.00883877C10.9338 -0.176354 9.12932 2.66286 13.6091 5.47172C13.9462 5.28186 14.25 5.09113 14.5229 4.90069C11.4593 2.8709 11.6119 0.855993 12.5311 0.00883877Z" fill="#FF649C"/>
</svg>
