<svg width="50" height="50" viewBox="0 0 50 50" fill="none" xmlns="http://www.w3.org/2000/svg">
<path opacity="0.5" d="M19 3.4641C22.7128 1.32051 27.2872 1.32051 31 3.4641L40.6506 9.0359C44.3634 11.1795 46.6506 15.141 46.6506 19.4282V30.5718C46.6506 34.859 44.3634 38.8205 40.6506 40.9641L31 46.5359C27.2872 48.6795 22.7128 48.6795 19 46.5359L9.34937 40.9641C5.63655 38.8205 3.34937 34.859 3.34937 30.5718V19.4282C3.34937 15.141 5.63655 11.1795 9.34937 9.0359L19 3.4641Z" fill="#E2F8EC"/>
<g clip-path="url(#clip0_923_190)">
<path d="M25.6948 24.8968L20.0103 23.2458C18.7764 22.8875 18.0666 21.5967 18.425 20.3628L20.0759 14.6782C20.4342 13.4443 21.725 12.7346 22.9589 13.0929L28.6435 14.7439C29.8774 15.1022 30.5872 16.393 30.2288 17.6269L28.5779 23.3115C28.2195 24.5454 26.9287 25.2551 25.6948 24.8968Z" fill="#F26666"/>
<path d="M28.645 14.7438L26.5738 14.1423C27.6161 14.6136 28.1807 15.7911 27.8524 16.9214L26.1945 22.6299C25.8635 23.7697 24.74 24.4634 23.5977 24.2872L25.6964 24.8968C26.9303 25.2551 28.2211 24.5453 28.5794 23.3114L30.2304 17.6269C30.5887 16.393 29.8789 15.1022 28.645 14.7438Z" fill="#DD5B5B"/>
<path d="M22.8074 36.0245L16.9639 36.9697C15.6955 37.1749 14.5009 36.313 14.2957 35.0446L13.3505 29.201C13.1453 27.9327 14.0073 26.7381 15.2757 26.5329L21.1191 25.5877C22.3875 25.3825 23.5821 26.2445 23.7873 27.5128L24.7325 33.3563C24.9377 34.6248 24.0758 35.8193 22.8074 36.0245Z" fill="#73E7E6"/>
<path d="M24.7322 33.3564L23.787 27.513C23.5818 26.2446 22.3872 25.3826 21.1188 25.5878L18.9355 25.941C20.1034 25.8988 21.1472 26.7314 21.3386 27.9149L22.2939 33.8206C22.4649 34.8773 21.9026 35.8828 20.9818 36.3198L22.807 36.0246C24.0754 35.8194 24.9374 34.6248 24.7322 33.3564Z" fill="#65D1CB"/>
<path d="M34.3534 36.3618H28.4339C27.149 36.3618 26.1074 35.3201 26.1074 34.0353V28.1158C26.1074 26.8309 27.149 25.7893 28.4339 25.7893H34.3534C35.6383 25.7893 36.6799 26.8309 36.6799 28.1158V34.0353C36.6799 35.3201 35.6383 36.3618 34.3534 36.3618Z" fill="#FF9F40"/>
<path d="M34.3526 25.7893H32.457C33.4943 26.0355 34.2662 26.9672 34.2662 28.0798V34.0712C34.2662 35.1838 33.4943 36.1155 32.457 36.3618H34.3526C35.6375 36.3618 36.6791 35.3201 36.6791 34.0353V28.1158C36.6791 26.8309 35.6375 25.7893 34.3526 25.7893Z" fill="#F49138"/>
<path d="M24.0966 21.4968C24.0432 21.4968 23.9865 21.4885 23.9325 21.4728C23.7466 21.4188 23.5712 21.276 23.6252 21.0901L24.6212 17.6604L24.4256 17.799L24.4232 17.8003C24.382 17.823 24.3338 17.8354 24.2874 17.8354C24.2658 17.8354 24.2449 17.8327 24.227 17.8275C24.1497 17.805 24.0887 17.7469 24.0553 17.6637C24.0254 17.5894 24.0211 17.5024 24.0435 17.4252C24.0768 17.3106 24.1721 17.2087 24.2815 17.1705L25.1307 16.7251C25.1763 16.7 25.222 16.6875 25.2695 16.6875C25.2986 16.6875 25.3282 16.692 25.36 16.7012C25.5272 16.7497 25.6775 16.9056 25.629 17.0727L24.3971 21.3143C24.3638 21.4285 24.2515 21.4968 24.0966 21.4968Z" fill="white"/>
<path d="M18.0601 33.9518C17.9119 33.9518 17.7417 33.873 17.7181 33.7268L17.6148 33.0879C17.5235 32.5234 18.0241 32.0167 18.5083 31.5267C18.9785 31.0507 19.4226 30.6012 19.3456 30.1247C19.3014 29.8519 19.09 29.5765 18.7172 29.5765C18.6723 29.5765 18.6255 29.5804 18.5777 29.5881C18.3977 29.6173 18.2539 29.6923 18.1621 29.8052C18.0608 29.9297 18.0258 30.0936 18.058 30.2924C18.0827 30.4453 17.9525 30.6287 17.6918 30.6709C17.6635 30.6755 17.6363 30.6778 17.6108 30.6778C17.4176 30.6778 17.2987 30.5485 17.2574 30.2935C17.1455 29.6018 17.6621 28.9829 18.459 28.854C18.5497 28.8393 18.6414 28.8319 18.7316 28.8319C19.4607 28.8319 20.025 29.2919 20.1358 29.9766C20.272 30.8193 19.6166 31.4576 19.0898 31.9704C18.7091 32.3411 18.3802 32.6612 18.4279 32.9563L18.4608 33.159L20.3495 32.8534C20.3604 32.8517 20.3714 32.8508 20.3824 32.8508C20.5238 32.8508 20.6564 32.9862 20.6844 33.1591C20.7151 33.3495 20.6106 33.5443 20.465 33.5679L18.1203 33.9471C18.1012 33.9502 18.0809 33.9518 18.0601 33.9518Z" fill="white"/>
<path d="M31.3704 33.5823C30.8871 33.5823 30.4856 33.443 30.2095 33.1795C29.9796 32.96 29.8477 32.6612 29.8477 32.3598C29.8477 32.1058 29.9494 32.0113 30.2228 32.0113C30.5216 32.0113 30.6381 32.0996 30.6381 32.3264C30.6381 32.5914 30.8666 32.8586 31.3771 32.8586C31.9092 32.8586 32.1362 32.6257 32.1362 32.0796V31.9528C32.1362 31.4959 31.8857 31.2738 31.3705 31.2738C31.2008 31.2738 31.0954 31.148 31.0954 30.9454C31.0954 30.7387 31.2008 30.6102 31.3705 30.6102C31.758 30.6102 32.0161 30.4936 32.0161 29.9246C32.0161 29.4827 31.8252 29.2856 31.3972 29.2856C30.8635 29.2856 30.7515 29.5569 30.7515 29.7844C30.7515 30.0068 30.6231 30.1196 30.3697 30.1196C30.0437 30.1196 29.9545 30.0389 29.9545 29.7444C29.9545 29.3077 30.2597 28.5686 31.4038 28.5686C32.3257 28.5686 32.7931 28.9844 32.7931 29.8045C32.7931 30.3131 32.6179 30.7184 32.3196 30.9129C32.7259 31.1059 32.9399 31.4635 32.9399 31.9528V32.0795C32.9399 32.6408 32.736 33.5823 31.3704 33.5823Z" fill="white"/>
</g>
<defs>
<clipPath id="clip0_923_190">
<rect width="24" height="24" fill="white" transform="translate(13 13)"/>
</clipPath>
</defs>
</svg>
