<svg width="24" height="24" viewBox="0 0 24 24" fill="none" xmlns="http://www.w3.org/2000/svg">
<g clip-path="url(#clip0_534_52488)">
<path d="M12.6948 11.8968L7.01026 10.2458C5.77637 9.88748 5.06659 8.59668 5.42495 7.3628L7.07589 1.67823C7.43424 0.444341 8.72504 -0.265439 9.95893 0.0929198L15.6435 1.74385C16.8774 2.10221 17.5872 3.39301 17.2288 4.6269L15.5779 10.3115C15.2195 11.5454 13.9287 12.2551 12.6948 11.8968Z" fill="#F26666"/>
<path d="M15.645 1.74383L13.5738 1.14233C14.6161 1.61357 15.1807 2.79106 14.8524 3.92141L13.1945 9.62988C12.8635 10.7697 11.74 11.4634 10.5977 11.2872L12.6964 11.8968C13.9303 12.2551 15.2211 11.5453 15.5794 10.3114L17.2304 4.62687C17.5887 3.39299 16.8789 2.10219 15.645 1.74383Z" fill="#DD5B5B"/>
<path d="M9.80739 23.0245L3.96387 23.9697C2.69548 24.1749 1.50092 23.313 1.29575 22.0446L0.350513 16.201C0.145342 14.9327 1.00728 13.7381 2.27567 13.5329L8.11914 12.5877C9.38753 12.3825 10.5821 13.2445 10.7873 14.5128L11.7325 20.3563C11.9377 21.6248 11.0758 22.8193 9.80739 23.0245Z" fill="#73E7E6"/>
<path d="M11.7322 20.3564L10.787 14.513C10.5818 13.2446 9.38723 12.3826 8.11884 12.5878L5.93555 12.941C7.10339 12.8988 8.1472 13.7314 8.33864 14.9149L9.2939 20.8206C9.46485 21.8773 8.90259 22.8828 7.98182 23.3198L9.80699 23.0246C11.0754 22.8194 11.9374 21.6248 11.7322 20.3564Z" fill="#65D1CB"/>
<path d="M21.3534 23.3618H15.4339C14.149 23.3618 13.1074 22.3201 13.1074 21.0353V15.1158C13.1074 13.8309 14.149 12.7893 15.4339 12.7893H21.3534C22.6383 12.7893 23.6799 13.8309 23.6799 15.1158V21.0353C23.6799 22.3201 22.6383 23.3618 21.3534 23.3618Z" fill="#FF9F40"/>
<path d="M21.3526 12.7893H19.457C20.4943 13.0355 21.2662 13.9672 21.2662 15.0798V21.0712C21.2662 22.1838 20.4943 23.1155 19.457 23.3618H21.3526C22.6375 23.3618 23.6791 22.3201 23.6791 21.0353V15.1158C23.6791 13.8309 22.6375 12.7893 21.3526 12.7893Z" fill="#F49138"/>
<path d="M11.0966 8.49677C11.0432 8.49677 10.9865 8.48848 10.9325 8.47277C10.7466 8.41877 10.5712 8.27604 10.6252 8.09013L11.6212 4.66044L11.4256 4.79895L11.4232 4.80026C11.382 4.82295 11.3338 4.83542 11.2874 4.83542C11.2658 4.83542 11.2449 4.8327 11.227 4.8275C11.1497 4.80504 11.0887 4.74687 11.0553 4.66372C11.0254 4.58937 11.0211 4.50242 11.0435 4.42517C11.0768 4.31056 11.1721 4.20875 11.2815 4.17055L12.1307 3.72509C12.1763 3.69997 12.222 3.6875 12.2695 3.6875C12.2986 3.6875 12.3282 3.692 12.36 3.70123C12.5272 3.74975 12.6775 3.90561 12.629 4.07272L11.3971 8.31429C11.3638 8.42852 11.2515 8.49677 11.0966 8.49677Z" fill="white"/>
<path d="M5.06007 20.9518C4.91194 20.9518 4.74174 20.873 4.71812 20.7268L4.61476 20.0879C4.52349 19.5234 5.02412 19.0167 5.50833 18.5267C5.97854 18.0507 6.42263 17.6012 6.34557 17.1247C6.30141 16.8519 6.08996 16.5765 5.71716 16.5765C5.67235 16.5765 5.62547 16.5804 5.57771 16.5881C5.39766 16.6173 5.25394 16.6923 5.16212 16.8052C5.06082 16.9297 5.0258 17.0936 5.05796 17.2924C5.08266 17.4453 4.95249 17.6287 4.69177 17.6709C4.66351 17.6755 4.63632 17.6778 4.61082 17.6778C4.41756 17.6778 4.29868 17.5485 4.25738 17.2935C4.14549 16.6018 4.66205 15.9829 5.45898 15.854C5.54968 15.8393 5.64141 15.8319 5.73165 15.8319C6.46074 15.8319 7.02502 16.2919 7.13578 16.9766C7.27205 17.8193 6.61655 18.4576 6.08977 18.9704C5.70905 19.3411 5.38023 19.6612 5.42794 19.9563L5.46076 20.159L7.34949 19.8534C7.36036 19.8517 7.37138 19.8508 7.38244 19.8508C7.52377 19.8508 7.65638 19.9862 7.68436 20.1591C7.71511 20.3495 7.61063 20.5443 7.46503 20.5679L5.1203 20.9471C5.10123 20.9502 5.08093 20.9518 5.06007 20.9518Z" fill="white"/>
<path d="M18.3704 20.5823C17.8871 20.5823 17.4856 20.443 17.2095 20.1795C16.9796 19.96 16.8477 19.6612 16.8477 19.3598C16.8477 19.1058 16.9494 19.0113 17.2228 19.0113C17.5216 19.0113 17.6381 19.0996 17.6381 19.3264C17.6381 19.5914 17.8666 19.8586 18.3771 19.8586C18.9092 19.8586 19.1362 19.6257 19.1362 19.0796V18.9528C19.1362 18.4959 18.8857 18.2738 18.3705 18.2738C18.2008 18.2738 18.0954 18.148 18.0954 17.9454C18.0954 17.7387 18.2008 17.6102 18.3705 17.6102C18.758 17.6102 19.0161 17.4936 19.0161 16.9246C19.0161 16.4827 18.8252 16.2856 18.3972 16.2856C17.8635 16.2856 17.7515 16.5569 17.7515 16.7844C17.7515 17.0068 17.6231 17.1196 17.3697 17.1196C17.0437 17.1196 16.9545 17.0389 16.9545 16.7444C16.9545 16.3077 17.2597 15.5686 18.4038 15.5686C19.3257 15.5686 19.7931 15.9844 19.7931 16.8045C19.7931 17.3131 19.6179 17.7184 19.3196 17.9129C19.7259 18.1059 19.9399 18.4635 19.9399 18.9528V19.0795C19.9399 19.6408 19.736 20.5823 18.3704 20.5823Z" fill="white"/>
</g>
<defs>
<clipPath id="clip0_534_52488">
<rect width="24" height="24" fill="white"/>
</clipPath>
</defs>
</svg>
