<svg width="50" height="50" viewBox="0 0 50 50" fill="none" xmlns="http://www.w3.org/2000/svg">
<path opacity="0.5" d="M19 3.4641C22.7128 1.32051 27.2872 1.32051 31 3.4641L40.6506 9.0359C44.3634 11.1795 46.6506 15.141 46.6506 19.4282V30.5718C46.6506 34.859 44.3634 38.8205 40.6506 40.9641L31 46.5359C27.2872 48.6795 22.7128 48.6795 19 46.5359L9.34937 40.9641C5.63655 38.8205 3.34937 34.859 3.34937 30.5718V19.4282C3.34937 15.141 5.63655 11.1795 9.34937 9.0359L19 3.4641Z" fill="#B6E8FE"/>
<g clip-path="url(#clip0_923_191)">
<path d="M36.9566 31.2404C36.9549 31.2305 36.9529 31.2207 36.9508 31.211L35.4683 24.5258C35.045 22.183 33.0106 20.4844 30.625 20.4844C29.8454 20.4844 29.0994 20.6616 28.4079 21.011C27.4957 21.4719 26.589 21.7526 25.7031 21.8506L25 21.5156L24.2969 21.8506C23.411 21.7526 22.5042 21.4719 21.592 21.0109C20.9005 20.6616 20.1545 20.4844 19.375 20.4844C16.9894 20.4844 14.955 22.183 14.5318 24.5258C14.5318 24.5258 13.0451 31.2305 13.0434 31.2404C13.0146 31.4025 13 31.5687 13 31.7344C13 33.2852 14.2617 34.5469 15.8125 34.5469C16.9107 34.5469 17.1695 34.3166 19.645 32.114C20.186 31.6326 20.8496 31.0421 21.6617 30.3281H28.3383C29.16 31.0505 29.8288 31.6457 30.3741 32.131C32.8316 34.3183 33.0886 34.5469 34.1875 34.5469C35.7383 34.5469 37 33.2852 37 31.7344C37 31.5687 36.9854 31.4025 36.9566 31.2404Z" fill="url(#paint0_linear_923_191)"/>
<path d="M22.1875 27.5156C21.0244 27.5156 20.0781 28.4619 20.0781 29.625C20.0781 30.7881 21.0244 31.7344 22.1875 31.7344C23.3506 31.7344 24.2969 30.7881 24.2969 29.625C24.2969 28.4619 23.3506 27.5156 22.1875 27.5156ZM20.0781 26.1094H20.7812C21.1696 26.1094 21.4844 25.7946 21.4844 25.4062C21.4844 25.0179 21.1696 24.7031 20.7812 24.7031H20.0781V24C20.0781 23.6117 19.7633 23.2969 19.375 23.2969C18.9867 23.2969 18.6719 23.6117 18.6719 24V24.7031H17.9688C17.5804 24.7031 17.2656 25.0179 17.2656 25.4062C17.2656 25.7946 17.5804 26.1094 17.9688 26.1094H18.6719V26.8125C18.6719 27.2008 18.9867 27.5156 19.375 27.5156C19.7633 27.5156 20.0781 27.2008 20.0781 26.8125V26.1094ZM23.5938 24.7031C23.2054 24.7031 22.8906 25.0179 22.8906 25.4062C22.8906 25.7946 23.2054 26.1094 23.5938 26.1094C23.9821 26.1094 24.2969 25.7946 24.2969 25.4062C24.2969 25.0179 23.9821 24.7031 23.5938 24.7031ZM27.8125 27.5156C26.6494 27.5156 25.7031 28.4619 25.7031 29.625C25.7031 30.7881 26.6494 31.7344 27.8125 31.7344C28.9756 31.7344 29.9219 30.7881 29.9219 29.625C29.9219 28.4619 28.9756 27.5156 27.8125 27.5156ZM25.7031 19.7812C25.7031 19.3935 26.0185 19.0781 26.4062 19.0781H29.2188C30.3819 19.0781 31.3281 18.1319 31.3281 16.9688C31.3281 15.8056 30.3819 14.8594 29.2188 14.8594H20.7812C20.3935 14.8594 20.0781 14.544 20.0781 14.1562C20.0781 13.7679 19.7633 13.4531 19.375 13.4531C18.9867 13.4531 18.6719 13.7679 18.6719 14.1562C18.6719 15.3194 19.6181 16.2656 20.7812 16.2656H29.2188C29.6065 16.2656 29.9219 16.581 29.9219 16.9688C29.9219 17.3565 29.6065 17.6719 29.2188 17.6719H26.4062C25.2431 17.6719 24.2969 18.6181 24.2969 19.7812V21.8506C24.5328 21.8767 24.7673 21.8906 25 21.8906C25.2327 21.8906 25.4672 21.8767 25.7031 21.8506V19.7812ZM32.0312 24.7031H31.3281V24C31.3281 23.6117 31.0133 23.2969 30.625 23.2969C30.2367 23.2969 29.9219 23.6117 29.9219 24V24.7031H29.2188C28.8304 24.7031 28.5156 25.0179 28.5156 25.4062C28.5156 25.7946 28.8304 26.1094 29.2188 26.1094H29.9219V26.8125C29.9219 27.2008 30.2367 27.5156 30.625 27.5156C31.0133 27.5156 31.3281 27.2008 31.3281 26.8125V26.1094H32.0312C32.4196 26.1094 32.7344 25.7946 32.7344 25.4062C32.7344 25.0179 32.4196 24.7031 32.0312 24.7031ZM25.7031 25.4062C25.7031 25.7946 26.0179 26.1094 26.4062 26.1094C26.7946 26.1094 27.1094 25.7946 27.1094 25.4062C27.1094 25.0179 26.7946 24.7031 26.4062 24.7031C26.0179 24.7031 25.7031 25.0179 25.7031 25.4062Z" fill="url(#paint1_linear_923_191)"/>
</g>
<defs>
<linearGradient id="paint0_linear_923_191" x1="25" y1="34.5469" x2="25" y2="20.4844" gradientUnits="userSpaceOnUse">
<stop stop-color="#5558FF"/>
<stop offset="1" stop-color="#00C0FF"/>
</linearGradient>
<linearGradient id="paint1_linear_923_191" x1="25" y1="31.7344" x2="25" y2="13.4531" gradientUnits="userSpaceOnUse">
<stop stop-color="#ADDCFF"/>
<stop offset="0.5028" stop-color="#EAF6FF"/>
<stop offset="1" stop-color="#EAF6FF"/>
</linearGradient>
<clipPath id="clip0_923_191">
<rect width="24" height="24" fill="white" transform="translate(13 12)"/>
</clipPath>
</defs>
</svg>
