<svg width="24" height="24" viewBox="0 0 24 24" fill="none" xmlns="http://www.w3.org/2000/svg">
<g clip-path="url(#clip0_534_52504)">
<path d="M23.9566 19.2404C23.9549 19.2305 23.9529 19.2207 23.9508 19.211L22.4683 12.5258C22.045 10.183 20.0106 8.48438 17.625 8.48438C16.8454 8.48438 16.0994 8.66156 15.4079 9.01102C14.4957 9.47194 13.589 9.75263 12.7031 9.85064L12 9.51562L11.2969 9.85059C10.411 9.75258 9.50423 9.47189 8.592 9.01092C7.90045 8.66156 7.15453 8.48438 6.375 8.48438C3.98939 8.48438 1.95502 10.183 1.53178 12.5258C1.53178 12.5258 0.0451406 19.2305 0.0433594 19.2404C0.0145781 19.4025 0 19.5687 0 19.7344C0 21.2852 1.26169 22.5469 2.8125 22.5469C3.91069 22.5469 4.16948 22.3166 6.64495 20.114C7.18603 19.6326 7.84964 19.0421 8.66175 18.3281H15.3383C16.16 19.0505 16.8288 19.6457 17.3741 20.131C19.8316 22.3183 20.0886 22.5469 21.1875 22.5469C22.7383 22.5469 24 21.2852 24 19.7344C24 19.5687 23.9854 19.4025 23.9566 19.2404Z" fill="url(#paint0_linear_534_52504)"/>
<path d="M9.1875 15.5156C8.02439 15.5156 7.07812 16.4619 7.07812 17.625C7.07812 18.7881 8.02439 19.7344 9.1875 19.7344C10.3506 19.7344 11.2969 18.7881 11.2969 17.625C11.2969 16.4619 10.3506 15.5156 9.1875 15.5156ZM7.07812 14.1094H7.78125C8.16956 14.1094 8.48438 13.7946 8.48438 13.4062C8.48438 13.0179 8.16956 12.7031 7.78125 12.7031H7.07812V12C7.07812 11.6117 6.76331 11.2969 6.375 11.2969C5.98669 11.2969 5.67188 11.6117 5.67188 12V12.7031H4.96875C4.58044 12.7031 4.26562 13.0179 4.26562 13.4062C4.26562 13.7946 4.58044 14.1094 4.96875 14.1094H5.67188V14.8125C5.67188 15.2008 5.98669 15.5156 6.375 15.5156C6.76331 15.5156 7.07812 15.2008 7.07812 14.8125V14.1094ZM10.5938 12.7031C10.2054 12.7031 9.89062 13.0179 9.89062 13.4062C9.89062 13.7946 10.2054 14.1094 10.5938 14.1094C10.9821 14.1094 11.2969 13.7946 11.2969 13.4062C11.2969 13.0179 10.9821 12.7031 10.5938 12.7031ZM14.8125 15.5156C13.6494 15.5156 12.7031 16.4619 12.7031 17.625C12.7031 18.7881 13.6494 19.7344 14.8125 19.7344C15.9756 19.7344 16.9219 18.7881 16.9219 17.625C16.9219 16.4619 15.9756 15.5156 14.8125 15.5156ZM12.7031 7.78125C12.7031 7.39355 13.0185 7.07812 13.4062 7.07812H16.2188C17.3819 7.07812 18.3281 6.13186 18.3281 4.96875C18.3281 3.80564 17.3819 2.85938 16.2188 2.85938H7.78125C7.39355 2.85938 7.07812 2.54395 7.07812 2.15625C7.07812 1.76794 6.76331 1.45312 6.375 1.45312C5.98669 1.45312 5.67188 1.76794 5.67188 2.15625C5.67188 3.31936 6.61814 4.26562 7.78125 4.26562H16.2188C16.6065 4.26562 16.9219 4.58105 16.9219 4.96875C16.9219 5.35645 16.6065 5.67188 16.2188 5.67188H13.4062C12.2431 5.67188 11.2969 6.61814 11.2969 7.78125V9.85059C11.5328 9.8767 11.7673 9.89062 12 9.89062C12.2327 9.89062 12.4672 9.87675 12.7031 9.85059V7.78125ZM19.0312 12.7031H18.3281V12C18.3281 11.6117 18.0133 11.2969 17.625 11.2969C17.2367 11.2969 16.9219 11.6117 16.9219 12V12.7031H16.2188C15.8304 12.7031 15.5156 13.0179 15.5156 13.4062C15.5156 13.7946 15.8304 14.1094 16.2188 14.1094H16.9219V14.8125C16.9219 15.2008 17.2367 15.5156 17.625 15.5156C18.0133 15.5156 18.3281 15.2008 18.3281 14.8125V14.1094H19.0312C19.4196 14.1094 19.7344 13.7946 19.7344 13.4062C19.7344 13.0179 19.4196 12.7031 19.0312 12.7031ZM12.7031 13.4062C12.7031 13.7946 13.0179 14.1094 13.4062 14.1094C13.7946 14.1094 14.1094 13.7946 14.1094 13.4062C14.1094 13.0179 13.7946 12.7031 13.4062 12.7031C13.0179 12.7031 12.7031 13.0179 12.7031 13.4062Z" fill="url(#paint1_linear_534_52504)"/>
</g>
<defs>
<linearGradient id="paint0_linear_534_52504" x1="12" y1="22.5469" x2="12" y2="8.48438" gradientUnits="userSpaceOnUse">
<stop stop-color="#5558FF"/>
<stop offset="1" stop-color="#00C0FF"/>
</linearGradient>
<linearGradient id="paint1_linear_534_52504" x1="12" y1="19.7344" x2="12" y2="1.45312" gradientUnits="userSpaceOnUse">
<stop stop-color="#ADDCFF"/>
<stop offset="0.5028" stop-color="#EAF6FF"/>
<stop offset="1" stop-color="#EAF6FF"/>
</linearGradient>
<clipPath id="clip0_534_52504">
<rect width="24" height="24" fill="white"/>
</clipPath>
</defs>
</svg>
