<svg width="20" height="20" viewBox="0 0 20 20" fill="none" xmlns="http://www.w3.org/2000/svg">
<g clip-path="url(#clip0_534_52464)">
<path d="M4.71749 5.01097H2.45117V4.86763C2.45117 4.60101 2.66729 4.38489 2.93392 4.38489H4.23474C4.50137 4.38489 4.71749 4.60101 4.71749 4.86763V5.01097Z" fill="url(#paint0_linear_534_52464)"/>
<path d="M17.5495 5.01097H15.2832V4.86763C15.2832 4.60101 15.4993 4.38489 15.7659 4.38489H17.0668C17.3334 4.38489 17.5495 4.60101 17.5495 4.86763V5.01097Z" fill="url(#paint1_linear_534_52464)"/>
<path d="M14.8691 5.79208H13.2981V4.17733C13.2981 3.81368 13.0023 3.5178 12.6387 3.5178H7.36324C6.9996 3.5178 6.70375 3.81368 6.70375 4.17733V5.79208H5.13281V4.17733C5.13281 2.94745 6.13336 1.9469 7.36324 1.9469H12.6387C13.8685 1.9469 14.8691 2.94749 14.8691 4.17733V5.79208Z" fill="url(#paint2_linear_534_52464)"/>
<path d="M14.8674 5.79208V4.17733C14.8674 4.15525 14.8663 4.13337 14.8657 4.11145L12.7028 1.94859C12.6808 1.94796 12.659 1.9469 12.6369 1.9469H12.1953V3.51784H12.6369C13.0006 3.51784 13.2964 3.81372 13.2964 4.17737V5.79212H14.8674V5.79208Z" fill="url(#paint3_linear_534_52464)"/>
<path d="M12.104 1.55725C12.4645 1.55725 12.7568 1.84949 12.7568 2.21V3.35043C12.7568 3.60133 12.5532 3.80439 12.3029 3.80439H12.1077C11.974 3.80439 11.8538 3.7467 11.7708 3.65482C11.7084 3.58576 11.5992 3.58576 11.5367 3.65482C11.4537 3.7467 11.3336 3.80439 11.1998 3.80439H11.0047C10.8712 3.80439 10.7509 3.74662 10.6678 3.65466C10.6054 3.58564 10.4962 3.58568 10.4338 3.6547C10.3508 3.74662 10.2306 3.80435 10.0968 3.80435H9.90219C9.76838 3.80435 9.64823 3.74662 9.56517 3.6547C9.50278 3.58564 9.39356 3.5856 9.33117 3.65466C9.24803 3.74662 9.12783 3.80439 8.99431 3.80439H8.79917C8.66544 3.80439 8.54529 3.7467 8.46227 3.65482C8.39983 3.58576 8.29062 3.58576 8.22819 3.65482C8.14513 3.7467 8.02501 3.80439 7.89125 3.80439H7.69611C7.44572 3.80439 7.24219 3.60137 7.24219 3.35043V2.21C7.24219 1.84949 7.53442 1.55725 7.89493 1.55725H12.104Z" fill="url(#paint4_linear_534_52464)"/>
<path d="M11.4669 2.93649H8.53236C8.30412 2.93649 8.11914 2.75147 8.11914 2.52327V2.48182C8.11914 2.25358 8.30416 2.0686 8.53236 2.0686H11.4669C11.6951 2.0686 11.8801 2.25362 11.8801 2.48182V2.52327C11.8801 2.75147 11.6951 2.93649 11.4669 2.93649Z" fill="url(#paint5_linear_534_52464)"/>
<path d="M18.4207 18.4428H1.57925C0.707059 18.4428 0 17.7358 0 16.8635V6.45181C0 5.57962 0.707059 4.87256 1.57925 4.87256H18.4207C19.2929 4.87256 20 5.57962 20 6.45181V16.8635C20 17.7358 19.2929 18.4428 18.4207 18.4428Z" fill="url(#paint6_linear_534_52464)"/>
<path d="M0 13.8319V16.8635C0 17.7357 0.707059 18.4428 1.57925 18.4428H18.4207C19.2929 18.4428 20 17.7357 20 16.8635V13.8319H0Z" fill="url(#paint7_linear_534_52464)"/>
<path d="M10 16.2124C12.5155 16.2124 14.5547 14.1732 14.5547 11.6577C14.5547 9.14224 12.5155 7.10303 10 7.10303C7.48452 7.10303 5.44531 9.14224 5.44531 11.6577C5.44531 14.1732 7.48452 16.2124 10 16.2124Z" fill="url(#paint8_linear_534_52464)"/>
<path d="M14.4596 12.5905L10.9698 9.11514C10.9082 9.00275 10.7888 8.92651 10.6515 8.92651H9.34996C9.14961 8.92651 8.98722 9.08891 8.98722 9.28926V10.6442H7.63228C7.43192 10.6442 7.26953 10.8066 7.26953 11.0069V12.3085C7.26953 12.4457 7.34577 12.5651 7.45816 12.6267L10.9324 16.1169C12.6999 15.7495 14.0918 14.3578 14.4596 12.5905Z" fill="url(#paint9_linear_534_52464)"/>
<path d="M12.3692 12.6713H11.0143V14.0262C11.0143 14.2266 10.8519 14.3889 10.6515 14.3889H9.34996C9.14961 14.3889 8.98722 14.2266 8.98722 14.0262V12.6713H7.63228C7.43192 12.6713 7.26953 12.5089 7.26953 12.3085V11.0069C7.26953 10.8066 7.43192 10.6442 7.63228 10.6442H8.98722V9.28926C8.98722 9.08891 9.14961 8.92651 9.34996 8.92651H10.6515C10.8519 8.92651 11.0143 9.08891 11.0143 9.28926V10.6442H12.3692C12.5696 10.6442 12.732 10.8066 12.732 11.0069V12.3085C12.7319 12.5088 12.5695 12.6713 12.3692 12.6713Z" fill="url(#paint10_linear_534_52464)"/>
<path d="M10.6508 14.3889H10V8.92651H10.6508C10.8511 8.92651 11.0135 9.08891 11.0135 9.28926V14.0262C11.0135 14.2265 10.8511 14.3889 10.6508 14.3889Z" fill="url(#paint11_linear_534_52464)"/>
<path d="M12.7319 11.0069V11.6577H7.26953V11.0069C7.26953 10.8066 7.43192 10.6442 7.63228 10.6442H12.3692C12.5695 10.6442 12.7319 10.8066 12.7319 11.0069Z" fill="url(#paint12_linear_534_52464)"/>
</g>
<defs>
<linearGradient id="paint0_linear_534_52464" x1="3.58431" y1="4.41963" x2="3.58431" y2="4.85297" gradientUnits="userSpaceOnUse">
<stop stop-color="#F8F6FB"/>
<stop offset="1" stop-color="#EFDCFB"/>
</linearGradient>
<linearGradient id="paint1_linear_534_52464" x1="16.4164" y1="4.41963" x2="16.4164" y2="4.85297" gradientUnits="userSpaceOnUse">
<stop stop-color="#F8F6FB"/>
<stop offset="1" stop-color="#EFDCFB"/>
</linearGradient>
<linearGradient id="paint2_linear_534_52464" x1="10.001" y1="2.46372" x2="10.001" y2="4.79843" gradientUnits="userSpaceOnUse">
<stop stop-color="#8A7889"/>
<stop offset="0.3639" stop-color="#877586"/>
<stop offset="0.6755" stop-color="#7F6A7E"/>
<stop offset="0.967" stop-color="#705970"/>
<stop offset="1" stop-color="#6E566E"/>
</linearGradient>
<linearGradient id="paint3_linear_534_52464" x1="14.3793" y1="5.24996" x2="10.2575" y2="1.12816" gradientUnits="userSpaceOnUse">
<stop stop-color="#6E566E" stop-opacity="0"/>
<stop offset="0.2944" stop-color="#674D66" stop-opacity="0.294"/>
<stop offset="1" stop-color="#593B56"/>
</linearGradient>
<linearGradient id="paint4_linear_534_52464" x1="9.99944" y1="1.76607" x2="9.99944" y2="4.02792" gradientUnits="userSpaceOnUse">
<stop stop-color="#FFD945"/>
<stop offset="0.3043" stop-color="#FFCD3E"/>
<stop offset="0.8558" stop-color="#FFAD2B"/>
<stop offset="1" stop-color="#FFA325"/>
</linearGradient>
<linearGradient id="paint5_linear_534_52464" x1="9.99961" y1="3.02853" x2="9.99961" y2="1.58786" gradientUnits="userSpaceOnUse">
<stop stop-color="#FFD945"/>
<stop offset="0.3043" stop-color="#FFCD3E"/>
<stop offset="0.8558" stop-color="#FFAD2B"/>
<stop offset="1" stop-color="#FFA325"/>
</linearGradient>
<linearGradient id="paint6_linear_534_52464" x1="8.18416" y1="6.31695" x2="13.7092" y2="22.5671" gradientUnits="userSpaceOnUse">
<stop stop-color="#FF7044"/>
<stop offset="1" stop-color="#F82814"/>
</linearGradient>
<linearGradient id="paint7_linear_534_52464" x1="10" y1="16.1619" x2="10" y2="17.9089" gradientUnits="userSpaceOnUse">
<stop stop-color="#F82814" stop-opacity="0"/>
<stop offset="1" stop-color="#C0272D"/>
</linearGradient>
<linearGradient id="paint8_linear_534_52464" x1="7.24912" y1="8.90683" x2="13.6061" y2="15.2639" gradientUnits="userSpaceOnUse">
<stop stop-color="#F8F6FB"/>
<stop offset="1" stop-color="#EFDCFB"/>
</linearGradient>
<linearGradient id="paint9_linear_534_52464" x1="14.9725" y1="16.6295" x2="4.72757" y2="6.38455" gradientUnits="userSpaceOnUse">
<stop stop-color="#EFDCFB" stop-opacity="0"/>
<stop offset="0.4856" stop-color="#BAAAD6" stop-opacity="0.486"/>
<stop offset="1" stop-color="#8679B2"/>
</linearGradient>
<linearGradient id="paint10_linear_534_52464" x1="8.49224" y1="10.1492" x2="11.9782" y2="13.6352" gradientUnits="userSpaceOnUse">
<stop stop-color="#FF7044"/>
<stop offset="1" stop-color="#F82814"/>
</linearGradient>
<linearGradient id="paint11_linear_534_52464" x1="10.4643" y1="11.6077" x2="5.12996" y2="14.4669" gradientUnits="userSpaceOnUse">
<stop stop-color="#F82814" stop-opacity="0"/>
<stop offset="1" stop-color="#C0272D"/>
</linearGradient>
<linearGradient id="paint12_linear_534_52464" x1="9.95067" y1="11.1934" x2="12.8099" y2="16.5278" gradientUnits="userSpaceOnUse">
<stop stop-color="#F82814" stop-opacity="0"/>
<stop offset="1" stop-color="#C0272D"/>
</linearGradient>
<clipPath id="clip0_534_52464">
<rect width="20" height="20" fill="white"/>
</clipPath>
</defs>
</svg>
