<svg width="50" height="50" viewBox="0 0 50 50" fill="none" xmlns="http://www.w3.org/2000/svg">
<path opacity="0.5" d="M19 3.4641C22.7128 1.32051 27.2872 1.32051 31 3.4641L40.6506 9.0359C44.3634 11.1795 46.6506 15.141 46.6506 19.4282V30.5718C46.6506 34.859 44.3634 38.8205 40.6506 40.9641L31 46.5359C27.2872 48.6795 22.7128 48.6795 19 46.5359L9.34937 40.9641C5.63655 38.8205 3.34937 34.859 3.34937 30.5718V19.4282C3.34937 15.141 5.63655 11.1795 9.34937 9.0359L19 3.4641Z" fill="#FDD1B7"/>
<g clip-path="url(#clip0_923_189)">
<path d="M19.7175 19.011H17.4512V18.8676C17.4512 18.601 17.6673 18.3849 17.9339 18.3849H19.2347C19.5014 18.3849 19.7175 18.601 19.7175 18.8676V19.011Z" fill="url(#paint0_linear_923_189)"/>
<path d="M32.5495 19.011H30.2832V18.8676C30.2832 18.601 30.4993 18.3849 30.7659 18.3849H32.0668C32.3334 18.3849 32.5495 18.601 32.5495 18.8676V19.011Z" fill="url(#paint1_linear_923_189)"/>
<path d="M29.8691 19.7921H28.2981V18.1773C28.2981 17.8137 28.0023 17.5178 27.6387 17.5178H22.3632C21.9996 17.5178 21.7038 17.8137 21.7038 18.1773V19.7921H20.1328V18.1773C20.1328 16.9474 21.1334 15.9469 22.3632 15.9469H27.6387C28.8685 15.9469 29.8691 16.9475 29.8691 18.1773V19.7921Z" fill="url(#paint2_linear_923_189)"/>
<path d="M29.8674 19.7921V18.1773C29.8674 18.1553 29.8663 18.1334 29.8657 18.1114L27.7028 15.9486C27.6808 15.948 27.659 15.9469 27.6369 15.9469H27.1953V17.5178H27.6369C28.0006 17.5178 28.2964 17.8137 28.2964 18.1774V19.7921H29.8674V19.7921Z" fill="url(#paint3_linear_923_189)"/>
<path d="M27.104 15.5573C27.4645 15.5573 27.7568 15.8495 27.7568 16.21V17.3504C27.7568 17.6013 27.5532 17.8044 27.3029 17.8044H27.1077C26.974 17.8044 26.8538 17.7467 26.7708 17.6548C26.7084 17.5858 26.5992 17.5858 26.5367 17.6548C26.4537 17.7467 26.3336 17.8044 26.1998 17.8044H26.0047C25.8712 17.8044 25.7509 17.7466 25.6678 17.6547C25.6054 17.5856 25.4962 17.5857 25.4338 17.6547C25.3508 17.7466 25.2306 17.8043 25.0968 17.8043H24.9022C24.7684 17.8043 24.6482 17.7466 24.5652 17.6547C24.5028 17.5856 24.3936 17.5856 24.3312 17.6547C24.248 17.7466 24.1278 17.8044 23.9943 17.8044H23.7992C23.6654 17.8044 23.5453 17.7467 23.4623 17.6548C23.3998 17.5858 23.2906 17.5858 23.2282 17.6548C23.1451 17.7467 23.025 17.8044 22.8912 17.8044H22.6961C22.4457 17.8044 22.2422 17.6014 22.2422 17.3504V16.21C22.2422 15.8495 22.5344 15.5573 22.8949 15.5573H27.104Z" fill="url(#paint4_linear_923_189)"/>
<path d="M26.4669 16.9365H23.5324C23.3041 16.9365 23.1191 16.7515 23.1191 16.5233V16.4818C23.1191 16.2536 23.3042 16.0686 23.5324 16.0686H26.4669C26.6951 16.0686 26.8801 16.2536 26.8801 16.4818V16.5233C26.8801 16.7515 26.6951 16.9365 26.4669 16.9365Z" fill="url(#paint5_linear_923_189)"/>
<path d="M33.4207 32.4428H16.5793C15.7071 32.4428 15 31.7358 15 30.8635V20.4518C15 19.5796 15.7071 18.8726 16.5793 18.8726H33.4207C34.2929 18.8726 35 19.5796 35 20.4518V30.8635C35 31.7358 34.2929 32.4428 33.4207 32.4428Z" fill="url(#paint6_linear_923_189)"/>
<path d="M15 27.8319V30.8635C15 31.7357 15.7071 32.4428 16.5793 32.4428H33.4207C34.2929 32.4428 35 31.7357 35 30.8635V27.8319H15Z" fill="url(#paint7_linear_923_189)"/>
<path d="M25 30.2124C27.5155 30.2124 29.5547 28.1732 29.5547 25.6577C29.5547 23.1422 27.5155 21.103 25 21.103C22.4845 21.103 20.4453 23.1422 20.4453 25.6577C20.4453 28.1732 22.4845 30.2124 25 30.2124Z" fill="url(#paint8_linear_923_189)"/>
<path d="M29.4596 26.5905L25.9698 23.1151C25.9082 23.0027 25.7888 22.9265 25.6515 22.9265H24.35C24.1496 22.9265 23.9872 23.0889 23.9872 23.2893V24.6442H22.6323C22.4319 24.6442 22.2695 24.8066 22.2695 25.0069V26.3085C22.2695 26.4457 22.3458 26.5651 22.4582 26.6267L25.9324 30.1169C27.6999 29.7495 29.0918 28.3578 29.4596 26.5905Z" fill="url(#paint9_linear_923_189)"/>
<path d="M27.3692 26.6713H26.0143V28.0262C26.0143 28.2266 25.8519 28.3889 25.6515 28.3889H24.35C24.1496 28.3889 23.9872 28.2266 23.9872 28.0262V26.6713H22.6323C22.4319 26.6713 22.2695 26.5089 22.2695 26.3085V25.0069C22.2695 24.8066 22.4319 24.6442 22.6323 24.6442H23.9872V23.2893C23.9872 23.0889 24.1496 22.9265 24.35 22.9265H25.6515C25.8519 22.9265 26.0143 23.0889 26.0143 23.2893V24.6442H27.3692C27.5696 24.6442 27.732 24.8066 27.732 25.0069V26.3085C27.7319 26.5088 27.5695 26.6713 27.3692 26.6713Z" fill="url(#paint10_linear_923_189)"/>
<path d="M25.6508 28.3889H25V22.9265H25.6508C25.8511 22.9265 26.0135 23.0889 26.0135 23.2893V28.0262C26.0135 28.2265 25.8511 28.3889 25.6508 28.3889Z" fill="url(#paint11_linear_923_189)"/>
<path d="M27.7319 25.0069V25.6577H22.2695V25.0069C22.2695 24.8066 22.4319 24.6442 22.6323 24.6442H27.3692C27.5695 24.6442 27.7319 24.8066 27.7319 25.0069Z" fill="url(#paint12_linear_923_189)"/>
</g>
<defs>
<linearGradient id="paint0_linear_923_189" x1="18.5843" y1="18.4196" x2="18.5843" y2="18.853" gradientUnits="userSpaceOnUse">
<stop stop-color="#F8F6FB"/>
<stop offset="1" stop-color="#EFDCFB"/>
</linearGradient>
<linearGradient id="paint1_linear_923_189" x1="31.4164" y1="18.4196" x2="31.4164" y2="18.853" gradientUnits="userSpaceOnUse">
<stop stop-color="#F8F6FB"/>
<stop offset="1" stop-color="#EFDCFB"/>
</linearGradient>
<linearGradient id="paint2_linear_923_189" x1="25.001" y1="16.4637" x2="25.001" y2="18.7984" gradientUnits="userSpaceOnUse">
<stop stop-color="#8A7889"/>
<stop offset="0.3639" stop-color="#877586"/>
<stop offset="0.6755" stop-color="#7F6A7E"/>
<stop offset="0.967" stop-color="#705970"/>
<stop offset="1" stop-color="#6E566E"/>
</linearGradient>
<linearGradient id="paint3_linear_923_189" x1="29.3793" y1="19.25" x2="25.2575" y2="15.1282" gradientUnits="userSpaceOnUse">
<stop stop-color="#6E566E" stop-opacity="0"/>
<stop offset="0.2944" stop-color="#674D66" stop-opacity="0.294"/>
<stop offset="1" stop-color="#593B56"/>
</linearGradient>
<linearGradient id="paint4_linear_923_189" x1="24.9994" y1="15.7661" x2="24.9994" y2="18.0279" gradientUnits="userSpaceOnUse">
<stop stop-color="#FFD945"/>
<stop offset="0.3043" stop-color="#FFCD3E"/>
<stop offset="0.8558" stop-color="#FFAD2B"/>
<stop offset="1" stop-color="#FFA325"/>
</linearGradient>
<linearGradient id="paint5_linear_923_189" x1="24.9996" y1="17.0285" x2="24.9996" y2="15.5879" gradientUnits="userSpaceOnUse">
<stop stop-color="#FFD945"/>
<stop offset="0.3043" stop-color="#FFCD3E"/>
<stop offset="0.8558" stop-color="#FFAD2B"/>
<stop offset="1" stop-color="#FFA325"/>
</linearGradient>
<linearGradient id="paint6_linear_923_189" x1="23.1842" y1="20.317" x2="28.7092" y2="36.5671" gradientUnits="userSpaceOnUse">
<stop stop-color="#FF7044"/>
<stop offset="1" stop-color="#F82814"/>
</linearGradient>
<linearGradient id="paint7_linear_923_189" x1="25" y1="30.1619" x2="25" y2="31.9089" gradientUnits="userSpaceOnUse">
<stop stop-color="#F82814" stop-opacity="0"/>
<stop offset="1" stop-color="#C0272D"/>
</linearGradient>
<linearGradient id="paint8_linear_923_189" x1="22.2491" y1="22.9068" x2="28.6061" y2="29.2639" gradientUnits="userSpaceOnUse">
<stop stop-color="#F8F6FB"/>
<stop offset="1" stop-color="#EFDCFB"/>
</linearGradient>
<linearGradient id="paint9_linear_923_189" x1="29.9725" y1="30.6295" x2="19.7276" y2="20.3846" gradientUnits="userSpaceOnUse">
<stop stop-color="#EFDCFB" stop-opacity="0"/>
<stop offset="0.4856" stop-color="#BAAAD6" stop-opacity="0.486"/>
<stop offset="1" stop-color="#8679B2"/>
</linearGradient>
<linearGradient id="paint10_linear_923_189" x1="23.4922" y1="24.1492" x2="26.9782" y2="27.6352" gradientUnits="userSpaceOnUse">
<stop stop-color="#FF7044"/>
<stop offset="1" stop-color="#F82814"/>
</linearGradient>
<linearGradient id="paint11_linear_923_189" x1="25.4643" y1="25.6077" x2="20.13" y2="28.4669" gradientUnits="userSpaceOnUse">
<stop stop-color="#F82814" stop-opacity="0"/>
<stop offset="1" stop-color="#C0272D"/>
</linearGradient>
<linearGradient id="paint12_linear_923_189" x1="24.9507" y1="25.1934" x2="27.8099" y2="30.5278" gradientUnits="userSpaceOnUse">
<stop stop-color="#F82814" stop-opacity="0"/>
<stop offset="1" stop-color="#C0272D"/>
</linearGradient>
<clipPath id="clip0_923_189">
<rect width="20" height="20" fill="white" transform="translate(15 14)"/>
</clipPath>
</defs>
</svg>
