<svg width="24" height="24" viewBox="0 0 24 24" fill="none" xmlns="http://www.w3.org/2000/svg">
<g clip-path="url(#clip0_534_52512)">
<path d="M12.9466 10.4321C11.3898 9.38105 7.8275 7.57399 8.35807 5.02237C8.41353 4.7556 8.57929 4.15005 8.7855 3.87467C9.85198 2.45054 13.2388 2.65328 15.5379 4.41422C16.5036 5.1537 17.9069 6.26988 18.7582 7.1303C19.0744 7.449 19.4504 7.87139 19.6003 8.06447C22.5676 11.8891 15.6261 12.2396 12.9466 10.4321Z" fill="#8888E8"/>
<path d="M9.65625 7.11911C9.733 7.11911 10.8829 5.38626 13.6467 6.64104C16.3071 7.84882 18.7759 9.13378 19.639 11.0578C20.5022 12.9818 11.8817 12.1766 11.8817 12.1766L9.65625 7.11911Z" fill="#4F4F9B"/>
<path d="M21.8814 17.4266C20.6429 18.1593 19.3145 18.2377 17.9887 17.8955C16.2065 17.4349 14.4295 16.2135 12.884 14.7974C10.3358 12.4642 8.4165 9.60331 8.13972 8.75483C7.50202 6.8018 8.29758 4.48256 8.7878 3.87451C7.62873 5.46356 11.8501 8.71074 13.5695 9.87132C16.2491 11.679 20.5406 10.2914 19.3135 7.94425C19.2008 7.72822 19.0767 7.44884 18.7604 7.13051C21.0713 9.08879 22.0169 9.8386 22.9418 10.8346C24.332 12.3312 24.7001 15.7586 21.8814 17.4266Z" fill="#C5C5FF"/>
<path d="M17.9876 17.8956C16.2053 17.435 14.4283 16.2135 12.8829 14.7975L12.8574 10.9292C12.8574 10.9292 18.6445 14.3545 17.9876 17.8956Z" fill="#A4A4F7"/>
<path d="M12.8695 13.4561C4.90358 16.6682 3.5602 14.2079 1.03755 11.3642C0.455162 10.7076 0.231552 8.30817 0.322221 7.72438C0.650418 5.61925 4.6352 4.30911 7.02086 6.08656C7.02086 6.08656 9.86121 7.86578 11.4338 9.51398C11.4351 9.51523 11.4363 9.51643 11.4375 9.517C12.8745 10.947 13.9781 13.0089 12.8695 13.4561Z" fill="#8888E8"/>
<path d="M11.3741 12.6403C11.3496 12.568 8.98121 10.9564 7.66926 9.94996C5.02826 7.92387 3.19259 8.22039 2.44366 9.39478C1.72812 10.5168 2.78634 12.3199 2.78634 12.3199L4.32622 15.0326L10.9891 16.2522L11.3741 12.6403Z" fill="#4F4F9B"/>
<path d="M15.7797 19.5542C13.6876 21.1107 9.52089 21.5319 6.54723 20.5051C4.46386 19.7854 2.72841 16.7646 1.55251 14.7777C0.614141 13.1914 -0.584556 12.644 0.322347 7.72437C0.231625 8.30816 0.421689 8.95261 1.00403 9.60926C3.52668 12.4529 3.85243 15.2305 11.8183 12.0184C12.9269 11.5712 12.4414 10.5711 11.4376 9.51698C13.1854 11.1549 14.6192 12.871 15.4428 13.9428C16.6366 15.4962 18.2986 17.6803 15.7797 19.5542Z" fill="#C5C5FF"/>
<path d="M22.933 9.58632C22.6499 10.3986 20.1506 9.78163 19.6655 9.65331C19.6131 9.63981 19.584 9.6315 19.584 9.6315L19.4256 9.27064L19.0605 8.43711C19.0605 8.43711 19.0554 6.69019 20.5063 6.54432C21.9577 6.39887 23.2882 8.56694 22.933 9.58632Z" fill="#FFA4D7"/>
<path d="M16.8054 13.1362C16.2425 13.3133 12.4127 10.5735 14.0615 9.41135C15.6542 8.28863 17.6405 8.81208 17.9328 9.00734C18.0092 9.05818 18.1613 9.1678 18.3275 9.33138L18.3748 9.37916C18.4501 9.45648 18.5269 9.54476 18.6001 9.64296C18.6313 9.68549 18.6619 9.72968 18.6915 9.77637C18.73 9.83609 18.7663 9.89892 18.7996 9.96487C19.1558 10.6649 18.4802 12.6086 16.8054 13.1362Z" fill="#FFC4E0"/>
<path d="M10.2422 12.1938C10.2422 12.1938 11.1214 10.2712 12.5724 10.1255C14.0235 9.97988 15.1932 12.2665 14.8378 13.286C14.5242 14.1857 10.7661 13.3879 10.7661 13.3879L10.2422 12.1938Z" fill="#FFA4D7"/>
<path d="M7.63715 16.8845C7.07423 17.0616 3.5913 14.3301 5.24007 13.1679C6.83276 12.0452 8.81855 12.5687 9.11144 12.7639C9.45745 12.9934 9.78876 13.3478 9.97815 13.7215C10.3339 14.4215 9.31241 16.3574 7.63715 16.8845Z" fill="#FFC4E0"/>
<path d="M9.50747 13.0888C8.9809 12.9106 8.09607 13.1672 7.66915 13.4166C7.54244 13.4906 7.15411 13.4453 7.01172 13.4098C8.11159 12.8271 9.31065 12.9118 9.31065 12.9118C9.31065 12.9118 9.31117 12.9118 9.31169 12.9123C9.37141 12.9616 9.4384 13.0203 9.50747 13.0888Z" fill="#FFA4D7"/>
<path d="M9.72946 13.3351C9.48747 14.638 9.25586 14.1722 9.25586 14.1722C9.57627 13.6716 9.65676 13.2473 9.65676 13.2473C9.68116 13.2754 9.70505 13.3045 9.72946 13.3351Z" fill="#FFA4D7"/>
<path d="M10.7378 12.6208C10.7378 12.6208 11.3735 11.5525 12.2724 11.3013C12.2724 11.3013 12.5714 11.5179 12.2174 11.6113C11.294 11.8552 10.5977 13.0055 10.5977 13.0055L10.7378 12.6208Z" fill="#FF85D4"/>
<path d="M18.3727 9.37908C18.1266 9.48605 17.547 9.77375 17.1934 10.2406C17.0563 10.4213 16.6871 10.2624 16.6995 10.2406C17.5288 9.32144 18.3254 9.3313 18.3254 9.3313L18.3727 9.37908Z" fill="#FFA4D7"/>
<path d="M18.6898 9.77628C18.6852 9.97517 18.6696 10.2967 18.6229 10.4114C18.5948 10.4805 18.3809 10.4721 18.3809 10.4721C18.5574 10.0479 18.5974 9.64334 18.5974 9.64334L18.5984 9.64282C18.6296 9.6854 18.6602 9.72955 18.6898 9.77628Z" fill="#FFA4D7"/>
<path d="M21.6006 8.01328L21.5985 8.01795C21.5149 8.20801 21.2576 8.30325 21.069 8.39044C19.119 9.29236 19.6995 9.61734 19.4258 9.2705C19.4258 9.26634 19.4258 9.26427 19.4258 9.26427L19.6995 9.0607C19.6995 9.06065 20.6378 7.98414 21.6006 8.01328Z" fill="#FF85D4"/>
<path d="M19.2118 8.51411C19.139 8.45621 19.0494 8.42292 18.9557 8.42193C18.7556 8.4198 18.3884 8.47568 18.0976 8.8571C17.7735 9.2821 18.5398 9.88194 18.9127 10.1374C19.0396 10.2243 19.1962 10.259 19.3482 10.2308C19.6694 10.1711 20.164 9.99343 19.9258 9.46972C19.685 8.94004 19.3741 8.6431 19.2118 8.51411Z" fill="#FF85D4"/>
<path d="M10.3915 12.2707C10.3187 12.2128 10.2291 12.1795 10.1354 12.1785C9.93531 12.1764 9.56811 12.2323 9.27725 12.6137C8.95321 13.0387 9.71949 13.6385 10.0924 13.894C10.2193 13.9809 10.3759 14.0155 10.5279 13.9873C10.8491 13.9277 11.3437 13.75 11.1055 13.2263C10.8646 12.6967 10.5538 12.3997 10.3915 12.2707Z" fill="#FF85D4"/>
</g>
<defs>
<clipPath id="clip0_534_52512">
<rect width="24" height="24" fill="white"/>
</clipPath>
</defs>
</svg>
