<svg width="50" height="50" viewBox="0 0 50 50" fill="none" xmlns="http://www.w3.org/2000/svg">
<path opacity="0.5" d="M19 3.4641C22.7128 1.32051 27.2872 1.32051 31 3.4641L40.6506 9.0359C44.3634 11.1795 46.6506 15.141 46.6506 19.4282V30.5718C46.6506 34.859 44.3634 38.8205 40.6506 40.9641L31 46.5359C27.2872 48.6795 22.7128 48.6795 19 46.5359L9.34937 40.9641C5.63655 38.8205 3.34937 34.859 3.34937 30.5718V19.4282C3.34937 15.141 5.63655 11.1795 9.34937 9.0359L19 3.4641Z" fill="#EFE9FF"/>
<g clip-path="url(#clip0_923_186)">
<path d="M25.9466 23.4321C24.3898 22.381 20.8275 20.574 21.3581 18.0224C21.4135 17.7556 21.5793 17.15 21.7855 16.8747C22.852 15.4505 26.2388 15.6533 28.5379 17.4142C29.5036 18.1537 30.9069 19.2699 31.7582 20.1303C32.0744 20.449 32.4504 20.8714 32.6003 21.0645C35.5676 24.8891 28.6261 25.2396 25.9466 23.4321Z" fill="#8888E8"/>
<path d="M22.6562 20.1191C22.733 20.1191 23.8829 18.3863 26.6467 19.641C29.3071 20.8488 31.7759 22.1338 32.639 24.0578C33.5022 25.9818 24.8817 25.1766 24.8817 25.1766L22.6562 20.1191Z" fill="#4F4F9B"/>
<path d="M34.8814 30.4266C33.6429 31.1593 32.3145 31.2377 30.9887 30.8955C29.2065 30.4349 27.4295 29.2135 25.884 27.7974C23.3358 25.4642 21.4165 22.6033 21.1397 21.7548C20.502 19.8018 21.2976 17.4826 21.7878 16.8745C20.6287 18.4636 24.8501 21.7107 26.5695 22.8713C29.2491 24.679 33.5406 23.2914 32.3135 20.9443C32.2008 20.7282 32.0767 20.4488 31.7604 20.1305C34.0713 22.0888 35.0169 22.8386 35.9418 23.8346C37.332 25.3312 37.7001 28.7586 34.8814 30.4266Z" fill="#C5C5FF"/>
<path d="M30.9876 30.8956C29.2053 30.435 27.4283 29.2135 25.8829 27.7975L25.8574 23.9292C25.8574 23.9292 31.6445 27.3545 30.9876 30.8956Z" fill="#A4A4F7"/>
<path d="M25.8695 26.4561C17.9036 29.6682 16.5602 27.2079 14.0376 24.3642C13.4552 23.7076 13.2316 21.3082 13.3222 20.7244C13.6504 18.6192 17.6352 17.3091 20.0209 19.0866C20.0209 19.0866 22.8612 20.8658 24.4338 22.514C24.4351 22.5152 24.4363 22.5164 24.4375 22.517C25.8745 23.947 26.9781 26.0089 25.8695 26.4561Z" fill="#8888E8"/>
<path d="M24.3741 25.6403C24.3496 25.568 21.9812 23.9564 20.6693 22.95C18.0283 20.9239 16.1926 21.2204 15.4437 22.3948C14.7281 23.5168 15.7863 25.3199 15.7863 25.3199L17.3262 28.0326L23.9891 29.2522L24.3741 25.6403Z" fill="#4F4F9B"/>
<path d="M28.7797 32.5542C26.6876 34.1107 22.5209 34.5319 19.5472 33.5051C17.4639 32.7854 15.7284 29.7646 14.5525 27.7777C13.6141 26.1914 12.4154 25.644 13.3223 20.7244C13.2316 21.3082 13.4217 21.9526 14.004 22.6093C16.5267 25.4529 16.8524 28.2305 24.8183 25.0184C25.9269 24.5712 25.4414 23.5711 24.4376 22.517C26.1854 24.1549 27.6192 25.871 28.4428 26.9428C29.6366 28.4962 31.2986 30.6803 28.7797 32.5542Z" fill="#C5C5FF"/>
<path d="M35.933 22.5863C35.6499 23.3986 33.1506 22.7816 32.6655 22.6533C32.6131 22.6398 32.584 22.6315 32.584 22.6315L32.4256 22.2706L32.0605 21.4371C32.0605 21.4371 32.0554 19.6902 33.5063 19.5443C34.9577 19.3989 36.2882 21.5669 35.933 22.5863Z" fill="#FFA4D7"/>
<path d="M29.8054 26.1362C29.2425 26.3133 25.4127 23.5735 27.0615 22.4114C28.6542 21.2886 30.6405 21.8121 30.9328 22.0073C31.0092 22.0582 31.1613 22.1678 31.3275 22.3314L31.3748 22.3792C31.4501 22.4565 31.5269 22.5448 31.6001 22.643C31.6313 22.6855 31.6619 22.7297 31.6915 22.7764C31.73 22.8361 31.7663 22.8989 31.7996 22.9649C32.1558 23.6649 31.4802 25.6086 29.8054 26.1362Z" fill="#FFC4E0"/>
<path d="M23.2422 25.1938C23.2422 25.1938 24.1214 23.2712 25.5724 23.1255C27.0235 22.9799 28.1932 25.2665 27.8378 26.286C27.5242 27.1857 23.7661 26.3879 23.7661 26.3879L23.2422 25.1938Z" fill="#FFA4D7"/>
<path d="M20.6371 29.8845C20.0742 30.0616 16.5913 27.3301 18.2401 26.1679C19.8328 25.0452 21.8186 25.5687 22.1114 25.7639C22.4574 25.9934 22.7888 26.3478 22.9781 26.7215C23.3339 27.4215 22.3124 29.3574 20.6371 29.8845Z" fill="#FFC4E0"/>
<path d="M22.5075 26.0888C21.9809 25.9106 21.0961 26.1672 20.6692 26.4166C20.5424 26.4906 20.1541 26.4453 20.0117 26.4098C21.1116 25.8271 22.3107 25.9118 22.3107 25.9118C22.3107 25.9118 22.3112 25.9118 22.3117 25.9123C22.3714 25.9616 22.4384 26.0203 22.5075 26.0888Z" fill="#FFA4D7"/>
<path d="M22.7295 26.3351C22.4875 27.638 22.2559 27.1722 22.2559 27.1722C22.5763 26.6716 22.6568 26.2473 22.6568 26.2473C22.6812 26.2754 22.7051 26.3045 22.7295 26.3351Z" fill="#FFA4D7"/>
<path d="M23.7378 25.6208C23.7378 25.6208 24.3735 24.5525 25.2724 24.3013C25.2724 24.3013 25.5714 24.5179 25.2174 24.6113C24.294 24.8552 23.5977 26.0055 23.5977 26.0055L23.7378 25.6208Z" fill="#FF85D4"/>
<path d="M31.3727 22.3791C31.1266 22.4861 30.547 22.7737 30.1934 23.2406C30.0563 23.4213 29.6871 23.2624 29.6995 23.2406C30.5288 22.3214 31.3254 22.3313 31.3254 22.3313L31.3727 22.3791Z" fill="#FFA4D7"/>
<path d="M31.6898 22.7763C31.6852 22.9752 31.6696 23.2967 31.6229 23.4114C31.5948 23.4805 31.3809 23.4721 31.3809 23.4721C31.5574 23.0479 31.5974 22.6433 31.5974 22.6433L31.5984 22.6428C31.6296 22.6854 31.6602 22.7295 31.6898 22.7763Z" fill="#FFA4D7"/>
<path d="M34.6006 21.0133L34.5985 21.0179C34.5149 21.208 34.2576 21.3033 34.069 21.3904C32.119 22.2924 32.6995 22.6173 32.4258 22.2705C32.4258 22.2663 32.4258 22.2643 32.4258 22.2643L32.6995 22.0607C32.6995 22.0606 33.6378 20.9841 34.6006 21.0133Z" fill="#FF85D4"/>
<path d="M32.2118 21.5141C32.139 21.4562 32.0494 21.4229 31.9557 21.4219C31.7556 21.4198 31.3884 21.4757 31.0976 21.8571C30.7735 22.2821 31.5398 22.8819 31.9127 23.1374C32.0396 23.2243 32.1962 23.259 32.3482 23.2308C32.6694 23.1711 33.164 22.9934 32.9258 22.4697C32.685 21.94 32.3741 21.6431 32.2118 21.5141Z" fill="#FF85D4"/>
<path d="M23.3915 25.2707C23.3187 25.2128 23.2291 25.1795 23.1354 25.1785C22.9353 25.1764 22.5681 25.2323 22.2773 25.6137C21.9532 26.0387 22.7195 26.6385 23.0924 26.894C23.2193 26.9809 23.3759 27.0155 23.5279 26.9873C23.8491 26.9277 24.3437 26.75 24.1055 26.2263C23.8646 25.6967 23.5538 25.3997 23.3915 25.2707Z" fill="#FF85D4"/>
</g>
<defs>
<clipPath id="clip0_923_186">
<rect width="24" height="24" fill="white" transform="translate(13 13)"/>
</clipPath>
</defs>
</svg>
