<svg width="50" height="50" viewBox="0 0 50 50" fill="none" xmlns="http://www.w3.org/2000/svg">
<path opacity="0.5" d="M19 3.4641C22.7128 1.32051 27.2872 1.32051 31 3.4641L40.6506 9.0359C44.3634 11.1795 46.6506 15.141 46.6506 19.4282V30.5718C46.6506 34.859 44.3634 38.8205 40.6506 40.9641L31 46.5359C27.2872 48.6795 22.7128 48.6795 19 46.5359L9.34937 40.9641C5.63655 38.8205 3.34937 34.859 3.34937 30.5718V19.4282C3.34937 15.141 5.63655 11.1795 9.34937 9.0359L19 3.4641Z" fill="#FFE9C2"/>
<path d="M24.2949 34.3511V38.9999H25.0008L25.4714 36.5294L25.0008 34.3511L24.6479 33.6453L24.2949 34.3511Z" fill="#D9E5FF"/>
<path d="M25.7059 34.0087L25.3529 33.6453L25 34.3511V38.9999H25.7059V34.0087Z" fill="#BFD6FF"/>
<path d="M25.0009 27.9984L25.4715 30.988L25.0009 34.3513H14.8262L18.657 30.988L20.2872 28.804L23.0044 27.1714L24.0185 27.3942L25.0009 27.9984Z" fill="#FAD42B"/>
<path d="M25.9294 27.3942L26.9965 27.1714L29.4706 28.7883L30.8209 31.5276L25 34.3513V27.9984L25.9294 27.3942Z" fill="#FCBF00"/>
<path d="M25.0007 22.3512L25.4713 19.1748L25.0007 15.9983L19.1797 18.8221L20.7811 21.7294L23.0042 23.1782H24.1379L25.0007 22.3512Z" fill="#FC6363"/>
<path d="M25.9118 23.1782H26.9966L29.5294 21.6118L31.3532 19.3534L35.1747 15.9983H25V22.3512L25.9118 23.1782Z" fill="#E63950"/>
<path d="M22.9458 24.3804L22.1772 25.1747V25.1748L19.0242 25.6454L15.8242 25.1748V15L23.0042 23.1782L22.9458 24.3804Z" fill="#25D9F8"/>
<path d="M23.0042 27.1713L18.6568 30.988L15.8242 25.1748H22.1772L22.9301 26.0236L23.0042 27.1713Z" fill="#00BDEF"/>
<path d="M27.0466 24.2705L26.9961 23.1782L31.3528 19.3533L34.176 25.1747L30.9995 25.6453L27.8231 25.1747V25.1747L27.0466 24.2705Z" fill="#76DD00"/>
<path d="M26.9961 27.1713L34.176 35.3495V25.1748H27.8231L27.2035 26.004L26.9961 27.1713Z" fill="#00C200"/>
<path d="M22.1758 25.1746C22.1758 26.7372 23.4425 27.9981 24.9993 27.9981L25.4699 25.1746L24.9993 22.3511C23.4398 22.3511 22.1758 23.6153 22.1758 25.1746Z" fill="#ECF2FF"/>
<path d="M27.8235 25.1749C27.8235 23.6154 26.5594 22.3513 25 22.3513V27.9984C26.5595 27.9984 27.8235 26.7342 27.8235 25.1749Z" fill="#D9E5FF"/>
</svg>
