<svg width="24" height="24" viewBox="0 0 24 24" fill="none" xmlns="http://www.w3.org/2000/svg">
<path d="M11.2949 19.3511V23.9999H12.0008L12.4714 21.5294L12.0008 19.3511L11.6479 18.6453L11.2949 19.3511Z" fill="#D9E5FF"/>
<path d="M12.7059 19.0087L12.3529 18.6453L12 19.3511V23.9999H12.7059V19.0087Z" fill="#BFD6FF"/>
<path d="M12.0009 12.9984L12.4715 15.988L12.0009 19.3513H1.82617L5.65704 15.988L7.28716 13.804L10.0044 12.1714L11.0185 12.3942L12.0009 12.9984Z" fill="#FAD42B"/>
<path d="M12.9294 12.3942L13.9965 12.1714L16.4706 13.7883L17.8209 16.5276L12 19.3513V12.9984L12.9294 12.3942Z" fill="#FCBF00"/>
<path d="M12.0007 7.35123L12.4713 4.17476L12.0007 0.998291L6.17969 3.82206L7.78105 6.72944L10.0042 8.17824H11.1379L12.0007 7.35123Z" fill="#FC6363"/>
<path d="M12.9118 8.17824H13.9966L16.5294 6.6118L18.3532 4.35335L22.1747 0.998291H12V7.35123L12.9118 8.17824Z" fill="#E63950"/>
<path d="M9.94577 9.38042L9.17716 10.1747V10.1748L6.02422 10.6454L2.82422 10.1748V0L10.0042 8.17821L9.94577 9.38042Z" fill="#25D9F8"/>
<path d="M10.0042 12.1713L5.65683 15.988L2.82422 10.1748H9.17716L9.9301 11.0236L10.0042 12.1713Z" fill="#00BDEF"/>
<path d="M14.0466 9.27054L13.9961 8.17817L18.3528 4.35327L21.176 10.1747L17.9995 10.6453L14.8231 10.1747V10.1747L14.0466 9.27054Z" fill="#76DD00"/>
<path d="M13.9961 12.1713L21.176 20.3495V10.1748H14.8231L14.2035 11.004L13.9961 12.1713Z" fill="#00C200"/>
<path d="M9.17578 10.1746C9.17583 11.7372 10.4425 12.9981 11.9993 12.9981L12.4699 10.1746L11.9993 7.35107C10.4398 7.35107 9.17578 8.61526 9.17578 10.1746Z" fill="#ECF2FF"/>
<path d="M14.8235 10.1749C14.8235 8.61541 13.5594 7.35132 12 7.35132V12.9984C13.5595 12.9984 14.8235 11.7342 14.8235 10.1749Z" fill="#D9E5FF"/>
</svg>
